<?xml version="1.0" encoding="UTF-8"?>
<svg width="800px" height="201px" viewBox="0 0 800 201" version="1.1" xmlns="http://www.w3.org/2000/svg" xmlns:xlink="http://www.w3.org/1999/xlink">
    <!-- Generator: Sketch 52.3 (67297) - http://www.bohemiancoding.com/sketch -->
    <title>binance_logo</title>
    <desc>Created with Sketch.</desc>
    <g id="Website" stroke="none" stroke-width="1" fill="none" fill-rule="evenodd">
        <g id="SUPPORTING-NETWORK" transform="translate(-329.000000, -431.000000)">
            <g id="binance_logo" transform="translate(329.000000, 431.000000)">
                <rect id="Rectangle-Copy-2" fill="#FFFFFF" x="0" y="0" width="800" height="200.74"></rect>
                <g id="Group-2" transform="translate(0.000000, 20.000000)" fill="#F3BA2F">
                    <polygon id="Path" points="49.4271293 67.133123 80.4529968 36.1085174 111.495268 67.1495268 129.548265 49.09653 80.4529968 0 31.3741325 49.0801262"></polygon>
                    <polygon id="Rectangle" transform="translate(18.625090, 79.878379) rotate(45.000000) translate(-18.625090, -79.878379) " points="5.85991302 67.1125704 31.3902675 67.1125704 31.3902675 92.6441868 5.85991302 92.6441868"></polygon>
                    <polygon id="Path" points="49.4271293 92.6283912 80.4529968 123.652997 111.494006 92.6132492 129.557098 110.656151 129.548265 110.666246 80.4529968 159.761514 31.3728707 110.68265 31.3476341 110.657413"></polygon>
                    <polygon id="Rectangle" transform="translate(142.282658, 79.886884) rotate(135.000000) translate(-142.282658, -79.886884) " points="129.51685 67.1217068 155.048466 67.1217068 155.048466 92.6520614 129.51685 92.6520614"></polygon>
                    <polygon id="Path" points="98.7646688 79.8712934 98.7722397 79.8712934 80.4529968 61.5520505 66.9148265 75.0902208 66.9135647 75.0902208 65.3589905 76.6460568 62.1501577 79.8548896 62.1501577 79.8548896 62.1249211 79.8801262 62.1501577 79.9066246 80.4529968 98.2094637 98.7722397 79.8902208 98.7810726 79.8801262"></polygon>
                    <path d="M188.479495,38.7116719 L227.743849,38.7116719 C237.488959,38.7116719 244.858044,41.2126183 249.852366,46.214511 C253.71735,50.0883281 255.649211,54.8895899 255.649211,60.6170347 L255.649211,60.859306 C255.649211,63.2794953 255.350158,65.4182965 254.748265,67.2731861 C254.147634,69.1305994 253.34511,70.8025237 252.341956,72.2952681 C251.341325,73.7892744 250.177918,75.1003155 248.855521,76.2283912 C247.531861,77.3589905 246.109779,78.3280757 244.586751,79.133123 C249.485174,80.9905363 253.341325,83.5104101 256.152681,86.6977918 C258.962776,89.8864353 260.369716,94.3041009 260.369716,99.9507886 L260.369716,100.191798 C260.369716,104.065615 259.625237,107.453628 258.135016,110.359621 C256.644795,113.263091 254.509779,115.684543 251.729968,117.621451 C248.950158,119.55836 245.607571,121.009464 241.700946,121.978549 C237.794322,122.946372 233.464984,123.429653 228.714196,123.429653 L188.479495,123.429653 L188.479495,38.7116719 Z M223.818297,72.9615142 C227.934385,72.9615142 231.202524,72.2574132 233.621451,70.844164 C236.04164,69.4321767 237.251735,67.1520505 237.251735,64.0063091 L237.251735,63.7640379 C237.251735,60.9413249 236.201893,58.7835962 234.104732,57.2895899 C232.006309,55.7968454 228.980442,55.0498423 225.028391,55.0498423 L206.632177,55.0498423 L206.632177,72.9615142 L223.818297,72.9615142 Z M228.781073,107.092744 C232.895899,107.092744 236.121136,106.348265 238.463091,104.854259 C240.802524,103.361514 241.973502,101.041009 241.973502,97.8940063 L241.973502,97.6529968 C241.973502,94.8290221 240.883281,92.5905363 238.705363,90.9350158 C236.526183,89.2832808 233.017035,88.4555205 228.175394,88.4555205 L206.632177,88.4555205 L206.632177,107.094006 L228.781073,107.094006 L228.781073,107.092744 Z" id="Shape" fill-rule="nonzero"></path>
                    <polygon id="Path" points="283.753943 38.7116719 302.393691 38.7116719 302.393691 123.432177 283.753943 123.432177"></polygon>
                    <polygon id="Path" points="330.624606 38.7116719 347.808202 38.7116719 387.506625 90.8757098 387.506625 38.7116719 405.902839 38.7116719 405.902839 123.432177 390.049211 123.432177 349.019558 69.5747634 349.019558 123.432177 330.624606 123.432177"></polygon>
                    <path d="M462.331861,38.1072555 L479.516719,38.1072555 L515.827129,123.432177 L496.340694,123.432177 L488.594322,104.431546 L452.769716,104.431546 L445.024606,123.432177 L426.020189,123.432177 L462.331861,38.1072555 Z M481.93817,87.9697161 L470.681388,60.4971609 L459.428391,87.9697161 L481.93817,87.9697161 Z" id="Shape" fill-rule="nonzero"></path>
                    <polygon id="Path" points="535.947003 38.7116719 553.134385 38.7116719 592.830284 90.8757098 592.830284 38.7116719 611.226498 38.7116719 611.226498 123.432177 595.372871 123.432177 554.343218 69.5747634 554.343218 123.432177 535.947003 123.432177 535.947003 38.7116719"></polygon>
                    <path d="M678.305363,124.883281 C672.08959,124.883281 666.323028,123.752681 660.996845,121.495268 C655.670662,119.237855 651.072555,116.150158 647.2,112.235962 C643.326183,108.323028 640.299054,103.70347 638.123659,98.3785489 C635.944479,93.0523659 634.855521,87.3640379 634.855521,81.3123028 L634.855521,81.0712934 C634.855521,75.0195584 635.944479,69.3526814 638.123659,64.066877 C640.300315,58.7823344 643.326183,54.1425868 647.2,50.1488959 C651.071293,46.155205 655.712303,43.0069401 661.116719,40.7078864 C666.521136,38.4088328 672.495899,37.259306 679.030915,37.259306 C682.981703,37.259306 686.591798,37.5835962 689.859937,38.2271293 C693.128076,38.8744479 696.092114,39.7602524 698.757098,40.8895899 C701.42082,42.0201893 703.878864,43.3917981 706.141325,45.0044164 C708.396215,46.6195584 710.495899,48.3936909 712.432808,50.3305994 L700.574132,64.0063091 C697.26183,61.022082 693.895268,58.6801262 690.466877,56.9867508 C687.035962,55.2933754 683.184858,54.4454259 678.908517,54.4454259 C675.357729,54.4454259 672.069401,55.1318612 669.046057,56.50347 C666.020189,57.8750789 663.417035,59.770347 661.237855,62.1905363 C659.061199,64.6107256 657.366562,67.4157729 656.153943,70.6018927 C654.946372,73.7905363 654.341956,77.1987382 654.341956,80.8290221 L654.341956,81.0700315 C654.341956,84.7003155 654.946372,88.1312303 656.153943,91.3564669 C657.366562,94.585489 659.037224,97.4082019 661.178549,99.8283912 C663.314826,102.24858 665.897792,104.166562 668.922397,105.578549 C671.950789,106.991798 675.278233,107.695899 678.908517,107.695899 C683.75142,107.695899 687.842271,106.808833 691.191167,105.033438 C694.540063,103.260568 697.870032,100.839117 701.177287,97.7716088 L713.038486,109.753943 C710.859306,112.094637 708.596845,114.19306 706.261199,116.046688 C703.920505,117.904101 701.358991,119.49653 698.574132,120.829022 C695.791798,122.158991 692.743218,123.169716 689.438486,123.853628 C686.127445,124.538801 682.417666,124.883281 678.305363,124.883281 Z" id="Path"></path>
                    <polygon id="Path" points="734.974132 38.7116719 798.755836 38.7116719 798.755836 55.2933754 753.371609 55.2933754 753.371609 72.4794953 793.311041 72.4794953 793.311041 89.0599369 753.371609 89.0599369 753.371609 106.851735 799.364038 106.851735 799.364038 123.432177 734.974132 123.432177"></polygon>
                </g>
            </g>
        </g>
    </g>
</svg>