<?xml version="1.0" encoding="UTF-8"?>
<svg width="800px" height="202px" viewBox="0 0 800 202" version="1.1" xmlns="http://www.w3.org/2000/svg" xmlns:xlink="http://www.w3.org/1999/xlink">
    <!-- Generator: Sketch 52.3 (67297) - http://www.bohemiancoding.com/sketch -->
    <title>ethereum_logo</title>
    <desc>Created with Sketch.</desc>
    <g id="Website" stroke="none" stroke-width="1" fill="none" fill-rule="evenodd">
        <g id="SUPPORTING-NETWORK" transform="translate(-329.000000, -123.000000)">
            <g id="ethereum_logo" transform="translate(329.000000, 123.000000)">
                <rect id="Rectangle" fill="#FFFFFF" x="0" y="1" width="800" height="200.74"></rect>
                <polygon id="Path" fill="#8891B1" points="61.4814815 74.1481481 61.4814815 0 0 102.074074"></polygon>
                <path d="M61.4814815,138.444444 L61.4814815,74.1481481 L0,102.074074 L61.4814815,138.444444 Z M61.4814815,74.1481481 L123.037037,102.074074 L61.4814815,0 L61.4814815,74.1481481 Z" id="Shape" fill="#63688E" fill-rule="nonzero"></path>
                <polygon id="Path" fill="#464A75" points="61.4814815 74.1481481 61.4814815 138.444444 123.037037 102.074074"></polygon>
                <polygon id="Path" fill="#8891B1" points="61.4814815 150.074074 0 113.777778 61.4814815 200.444444"></polygon>
                <polygon id="Path" fill="#63688E" points="123.037037 113.777778 61.4814815 150.074074 61.4814815 200.444444"></polygon>
                <path d="M225.851852,115.851852 C225.851852,117.259259 224.592593,118.518519 223.185185,118.518519 L174,118.518519 C175.259259,130.222222 184.37037,141.62963 197.259259,141.62963 C206.074074,141.62963 212.592593,138.222222 217.555556,131.111111 C218.074074,130.37037 218.814815,129.851852 219.703704,129.851852 C221.111111,129.851852 222.148148,130.888889 222.148148,132.296296 C222.148148,132.814815 222,133.185185 221.777778,133.555556 C216.814815,142.222222 206.962963,146.444444 197.259259,146.444444 C180.666667,146.444444 168.888889,131.62963 168.888889,115.777778 C168.888889,99.9259259 180.666667,85.1851852 197.259259,85.1851852 C213.851852,85.1851852 225.851852,100 225.851852,115.851852 Z M220.518519,113.481481 C219.481481,100.962963 210.148148,90.2222222 197.259259,90.2222222 C184.37037,90.2222222 175.185185,100.962963 174,113.481481 L220.518519,113.481481 Z M285.62963,86 C287.037037,86 288.074074,87.2592593 288.074074,88.5185185 C288.074074,89.9259259 287.037037,91.037037 285.62963,91.037037 L272.444444,91.037037 L272.444444,143.037037 C272.444444,144.296296 271.333333,145.481481 269.925926,145.481481 C268.518519,145.481481 267.407407,144.222222 267.407407,143.037037 L267.407407,91.037037 L254.740741,91.037037 C253.333333,91.037037 252.296296,89.9259259 252.296296,88.5185185 C252.296296,87.2592593 253.333333,86 254.740741,86 L267.407407,86 L267.407407,67.1851852 C267.407407,65.7777778 268.518519,64.7407407 269.925926,64.7407407 C271.333333,64.7407407 272.444444,65.7777778 272.444444,67.1851852 L272.444444,86 L285.62963,86 Z M365.777778,111.259259 L365.777778,142.666667 C365.777778,144.074074 364.962963,145.111111 363.703704,145.111111 C362.296296,145.111111 361.62963,144.074074 361.62963,142.666667 L361.62963,111.259259 C361.62963,100.666667 355.481481,90.0740741 343.62963,90.0740741 C328.444444,90.0740741 321.703704,103.333333 322.518519,116.888889 C322.518519,117.259259 322.444444,118.814815 322.444444,119.037037 L322.444444,142.666667 C322.444444,144.074074 321.777778,145.111111 320.37037,145.111111 C318.962963,145.111111 318.296296,144.074074 318.296296,142.666667 L318.296296,39.4814815 C318.296296,38.2222222 318.962963,37.037037 320.37037,37.037037 C321.777778,37.037037 322.444444,38.2962963 322.444444,39.4814815 L322.444444,97.8518519 C327.481481,90.2962963 334.222222,85.1851852 343.037037,85.1851852 C357.481481,85.1851852 365.777778,97.8518519 365.777778,111.259259 Z M454.518519,115.851852 C454.518519,117.259259 453.259259,118.518519 451.851852,118.518519 L402.666667,118.518519 C403.925926,130.222222 413.037037,141.62963 425.925926,141.62963 C434.740741,141.62963 441.259259,138.222222 446.222222,131.111111 C446.740741,130.37037 447.481481,129.851852 448.37037,129.851852 C449.777778,129.851852 450.814815,130.888889 450.814815,132.296296 C450.814815,132.814815 450.666667,133.185185 450.444444,133.555556 C445.481481,142.222222 435.62963,146.444444 425.925926,146.444444 C409.333333,146.444444 397.555556,131.62963 397.555556,115.777778 C397.555556,99.9259259 409.333333,85.1851852 425.925926,85.1851852 C442.518519,85.1851852 454.518519,100 454.518519,115.851852 Z M449.259259,113.481481 C448.222222,100.962963 438.888889,90.2222222 426,90.2222222 C413.111111,90.2222222 403.925926,100.962963 402.740741,113.481481 L449.259259,113.481481 Z M515.037037,88.5185185 C515.037037,90.0740741 514.148148,90.962963 512.666667,91.1851852 C498.222222,93.3333333 491.62963,105.111111 491.62963,118.888889 L491.62963,142.444444 C491.62963,143.851852 490.518519,144.888889 489.111111,144.888889 C487.703704,144.888889 486.592593,143.851852 486.592593,142.444444 L486.592593,88.6666667 C486.592593,87.2592593 487.703704,86.2222222 489.111111,86.2222222 C490.518519,86.2222222 491.62963,87.2592593 491.62963,88.6666667 L491.62963,99.6296296 C495.777778,92.7407407 503.851852,86.2222222 512.296296,86.2222222 C513.555556,86.2222222 515.037037,87.1111111 515.037037,88.5185185 Z M595.925926,115.851852 C595.925926,117.259259 594.666667,118.518519 593.259259,118.518519 L544.074074,118.518519 C545.333333,130.222222 554.444444,141.62963 567.333333,141.62963 C576.148148,141.62963 582.666667,138.222222 587.62963,131.111111 C588.148148,130.37037 588.888889,129.851852 589.777778,129.851852 C591.185185,129.851852 592.222222,130.888889 592.222222,132.296296 C592.222222,132.814815 592.074074,133.185185 591.851852,133.555556 C586.888889,142.222222 577.037037,146.444444 567.333333,146.444444 C550.740741,146.444444 538.962963,131.62963 538.962963,115.777778 C538.962963,99.9259259 550.740741,85.1851852 567.333333,85.1851852 C583.925926,85.1111111 595.925926,100 595.925926,115.851852 Z M590.666667,113.481481 C589.62963,100.962963 580.296296,90.2222222 567.407407,90.2222222 C554.518519,90.2222222 545.333333,100.962963 544.148148,113.481481 L590.666667,113.481481 Z M675.851852,89.037037 L675.851852,142.962963 C675.851852,144.37037 674.592593,145.407407 673.333333,145.407407 C671.925926,145.407407 670.814815,144.37037 670.814815,142.962963 L670.814815,132.814815 C666.666667,140.888889 659.481481,146.740741 650.296296,146.740741 C635.62963,146.740741 627.481481,134.074074 627.481481,120.666667 L627.481481,89.1111111 C627.481481,87.8518519 628.592593,86.6666667 630,86.6666667 C631.407407,86.6666667 632.518519,87.9259259 632.518519,89.1111111 L632.518519,120.666667 C632.518519,131.259259 638.518519,141.851852 650.37037,141.851852 C666.962963,141.851852 670.888889,126.37037 670.888889,109.259259 L670.888889,89.1851852 C670.888889,87.9259259 672,86.7407407 673.407407,86.7407407 C674.592593,86.5925926 675.851852,87.8518519 675.851852,89.037037 Z M800,111.111111 L800,142.666667 C800,144.074074 798.740741,145.111111 797.481481,145.111111 C796.074074,145.111111 794.962963,144.074074 794.962963,142.666667 L794.962963,111.111111 C794.962963,100.518519 788.962963,90.1481481 777.111111,90.1481481 C762.296296,90.1481481 756.592593,106 756.592593,118.37037 L756.592593,142.666667 C756.592593,144.074074 755.333333,145.111111 754.074074,145.111111 C752.666667,145.111111 751.555556,144.074074 751.555556,142.666667 L751.555556,111.111111 C751.555556,100.518519 745.703704,90.1481481 733.925926,90.1481481 C718.962963,90.1481481 712.740741,101.925926 713.259259,117.62963 L713.259259,142.666667 C713.259259,144.074074 712.148148,145.111111 710.740741,145.111111 C709.333333,145.111111 708.222222,144.074074 708.222222,142.666667 L708.222222,88.7407407 C708.222222,87.3333333 709.333333,86.2962963 710.740741,86.2962963 C712.148148,86.2962963 713.259259,87.3333333 713.259259,88.7407407 L713.259259,97.7037037 C717.407407,90.1481481 725.185185,85.1851852 734,85.1851852 C744.074074,85.1851852 751.851852,91.5555556 755.037037,100.888889 C759.111111,91.7037037 767.037037,85.1851852 777.259259,85.1851852 C791.777778,85.1851852 800,97.7037037 800,111.111111 Z" id="Shape" fill="#8891B1" fill-rule="nonzero"></path>
            </g>
        </g>
    </g>
</svg>