<?xml version="1.0" encoding="UTF-8"?>
<svg width="800px" height="201px" viewBox="0 0 800 201" version="1.1" xmlns="http://www.w3.org/2000/svg" xmlns:xlink="http://www.w3.org/1999/xlink">
    <!-- Generator: Sketch 52.3 (67297) - http://www.bohemiancoding.com/sketch -->
    <title>polygon_logo</title>
    <desc>Created with Sketch.</desc>
    <g id="Website" stroke="none" stroke-width="1" fill="none" fill-rule="evenodd">
        <g id="SUPPORTING-NETWORK" transform="translate(-329.000000, -701.000000)">
            <g id="polygon_logo" transform="translate(329.000000, 701.000000)">
                <rect id="Rectangle-Copy" fill="#FFFFFF" x="0" y="0" width="800" height="200.74"></rect>
                <g id="Group" transform="translate(0.000000, 13.000000)">
                    <path d="M312.978906,55.9928906 C317.886719,58.9596875 322.039844,63.0389844 324.682031,68.6016406 C327.702344,74.164375 329.2125,80.8398438 329.2125,88.25625 C329.2125,95.6734375 327.702344,101.978125 324.304688,107.540625 C321.284375,113.103125 316.753906,117.182813 311.090625,119.778125 C305.428125,122.745313 298.632031,124.228906 291.459375,124.228906 C287.30625,124.228906 283.530469,123.486719 279.755469,122.003906 C275.979688,120.891406 272.582031,118.665625 269.939063,116.070313 L269.939063,154.638281 L248.042188,154.638281 L248.042188,53.0260938 L266.91875,53.0260938 L268.807031,61.1847656 C277.1125,54.5095313 286.173438,51.171875 295.611719,51.171875 C302.029688,51.171875 308.070312,52.6552344 312.978906,55.9928906 Z M300.897656,101.978125 C304.672656,98.640625 306.560156,94.1898438 306.560156,88.6273438 C306.560156,83.0648438 304.672656,78.6148438 301.275,74.9060938 C297.877344,71.1975781 293.346875,69.7142188 288.439062,69.7142188 C284.285938,69.7142188 280.510156,70.4559375 277.489844,72.3101563 C274.469531,73.7935156 272.204688,76.3894531 270.317187,79.7273438 L270.317187,96.4148438 C271.449219,99.753125 273.714844,102.348438 276.357813,104.203125 C279.378125,106.057031 282.775781,107.169531 286.928906,107.169531 C292.591406,107.169531 297.121875,105.315625 300.897656,101.978125 Z" id="Shape" fill="#212121" fill-rule="nonzero"></path>
                    <path d="M342.047656,68.9648438 C345.446094,63.7729688 349.975781,59.3228125 356.016406,56.3560156 C362.057031,53.3892969 368.853125,51.535 376.403906,51.535 C383.954687,51.535 390.75,53.0184375 396.790625,56.3560156 C402.453906,59.3228125 406.984375,63.7729688 410.382031,69.335625 C413.779688,74.8983594 415.289844,80.8320312 415.289844,87.878125 C415.289844,94.9242187 413.779688,100.857813 410.382031,106.420312 C406.984375,111.982812 402.83125,116.432812 396.790625,119.4 C391.127344,122.366406 383.954687,124.221094 376.403906,124.221094 C368.853125,124.221094 362.057031,122.7375 356.016406,119.771094 C349.975781,116.803906 345.446094,112.725 342.047656,107.161719 C339.027344,101.599219 337.139844,95.2945313 337.139844,87.878125 C337.139844,80.8320312 339.027344,74.5275 342.047656,68.9648438 Z M364.322656,101.228125 C367.342969,104.936719 371.496094,106.420312 376.403906,106.420312 C381.311719,106.420312 385.464844,104.566406 388.485156,101.228125 C391.505469,97.890625 393.015625,93.0695313 393.015625,87.878125 C393.015625,82.315625 391.505469,77.8651563 388.485156,74.5275 C385.086719,70.8190625 381.311719,68.9648438 376.026562,68.9648438 C371.117969,68.9648438 367.342969,70.8190625 363.945312,74.1566406 C360.925,77.8651563 359.414844,82.315625 359.414844,87.878125 C359.414844,93.0695313 360.925,97.5203125 364.322656,101.228125 Z" id="Shape" fill="#212121" fill-rule="nonzero"></path>
                    <polygon id="Path" fill="#212121" points="450.782031 0.362396094 450.782031 122.371094 428.885156 122.371094 428.885156 0.362396094"></polygon>
                    <polygon id="Path" fill="#212121" points="540.632812 54.8753906 496.083594 155.003906 474.942188 155.003906 491.553125 119.032031 459.840625 54.8753906 484.757813 54.8753906 502.879688 94.9265625 521.001562 54.8753906"></polygon>
                    <path d="M624.442969,54.8726563 L624.442969,122.366406 C624.442969,128.671094 622.555469,134.604688 618.779687,139.796875 C615.004687,144.988281 610.096094,149.067969 603.678125,152.034375 C597.260156,155.001563 590.464844,156.484375 582.914062,156.484375 C577.250781,156.484375 572.342969,155.742969 568.189844,154.630469 C564.036719,153.146875 560.639063,151.663281 557.996094,150.180469 C554.976562,148.325781 551.95625,146.100781 548.557812,143.134375 L561.394531,128.3 C564.414844,131.267188 567.8125,133.492188 570.832813,134.975781 C573.853125,136.458594 578.00625,137.571094 582.536719,137.571094 C588.199219,137.571094 592.729687,136.088281 596.505469,133.492188 C600.280469,130.896094 602.167969,126.817188 602.167969,121.996094 L602.167969,112.353906 C599.903125,115.691406 596.882812,118.658594 592.352344,120.883594 C587.821875,123.108594 582.536719,124.221094 576.496094,124.221094 C570.455469,124.221094 564.414844,122.7375 559.128906,119.4 C553.84375,116.432813 549.690625,111.982813 546.292969,106.420313 C543.272656,100.857813 541.385156,94.9242188 541.385156,88.2492188 C541.385156,81.5734375 542.895312,75.2692188 546.292969,69.7064844 C549.690625,64.1438281 553.84375,59.6936719 559.50625,56.3560156 C564.792187,53.0184375 570.455469,51.535 576.496094,51.535 C582.158594,51.535 587.066406,52.2767188 591.596875,53.7600781 C596.127344,55.2435156 599.525781,57.4685938 601.790625,60.0645313 L604.05625,54.8726563 L624.442969,54.8726563 Z M602.167969,96.4078125 L602.167969,79.7195313 C600.657812,76.3817969 598.392969,73.7858594 594.995312,71.9315625 C591.596875,70.0773438 587.821875,68.9648438 583.291406,68.9648438 C578.00625,68.9648438 573.475781,70.8190625 569.7,74.1566406 C565.925,77.4942969 564.036719,81.9445313 564.036719,87.5070313 C564.036719,92.6992188 565.925,97.5203125 569.7,101.228125 C573.475781,104.936719 578.00625,106.791406 583.291406,106.791406 C591.975,106.420313 598.392969,103.082813 602.167969,96.4078125 Z" id="Shape" fill="#212121" fill-rule="nonzero"></path>
                    <path d="M642.571094,68.9725 C645.96875,63.4098437 650.499219,59.3304687 656.539844,55.9928906 C662.580469,53.0260937 669.376562,51.171875 676.927344,51.171875 C684.478125,51.171875 691.273438,52.6552344 697.314062,55.9928906 C702.977344,58.9596875 707.507812,63.4098437 710.905469,68.9725 C713.925781,74.5352344 715.813281,80.46875 715.813281,87.5148437 C715.813281,94.5609375 714.303125,100.494531 710.905469,106.057031 C707.885156,111.619531 703.354687,116.070312 697.314062,119.036719 C691.650781,122.003906 684.478125,123.857812 676.927344,123.857812 C669.376562,123.857812 662.580469,122.374219 656.539844,119.407812 C650.499219,116.440625 645.96875,112.361719 642.571094,106.799219 C639.173437,101.235937 637.663281,94.9320312 637.663281,87.14375 C637.663281,80.8398437 639.173437,74.5352344 642.571094,68.9725 Z M664.46875,101.235937 C667.489062,104.944531 671.641406,106.428125 676.549219,106.428125 C681.457812,106.428125 685.610156,104.573437 688.630469,101.235937 C691.650781,97.8984375 693.160937,93.0773437 693.160937,87.8859375 C693.160937,82.3226562 691.650781,77.8728125 688.630469,74.5352344 C685.610156,71.1975781 681.457812,69.3433594 676.549219,69.3433594 C671.641406,69.3433594 667.866406,71.1975781 664.46875,74.5352344 C661.070312,77.8728125 659.560156,82.69375 659.560156,87.8859375 C659.938281,93.0773437 661.448437,97.5273437 664.46875,101.235937 Z" id="Shape" fill="#212121" fill-rule="nonzero"></path>
                    <path d="M793.210938,57.0977344 C797.742188,60.8061719 799.625,65.6271875 800,71.5607813 L800,122.366406 L777.728906,122.366406 L777.728906,79.7195313 C777.351562,73.0441406 773.953906,69.7064844 767.535156,69.7064844 C762.627344,69.7064844 758.475,71.9315625 755.454687,76.7525781 C752.434375,81.5734375 750.924219,87.5070313 750.924219,94.553125 L750.924219,122.366406 L729.026562,122.366406 L729.026562,54.8726563 L749.035937,54.8726563 L750.546094,65.6271875 C753.189062,61.1770313 756.586719,57.8394531 761.117188,55.2435156 C765.647656,52.6475781 770.933594,51.535 776.974219,51.535 C783.390625,51.535 789.054688,53.3892969 793.210938,57.0977344 Z" id="Path" fill="#212121"></path>
                    <path d="M154.4125,53.7685156 C150.636719,51.5434375 145.728906,51.5434375 141.576562,53.7685156 L112.128125,70.8275 L92.11875,81.953125 L62.6710937,99.0117188 C58.8957031,101.236719 53.9877344,101.236719 49.8348437,99.0117188 L26.4275781,85.6609375 C22.6521875,83.4359375 20.0094531,79.3570312 20.0094531,74.9067969 L20.0094531,48.5766406 C20.0094531,44.1264844 22.2746875,40.0471875 26.4275781,37.8221094 L49.4572656,24.8425 C53.2326562,22.6174219 58.140625,22.6174219 62.2935156,24.8425 L85.3234375,37.8221094 C89.0984375,40.0471875 91.7414062,44.1264844 91.7414062,48.5766406 L91.7414062,65.635625 L111.750781,54.139375 L111.750781,37.0804687 C111.750781,32.6302344 109.485937,28.5509375 105.332812,26.3258594 L62.6710937,1.85000781 C58.8957031,-0.375071875 53.9877344,-0.375071875 49.8348437,1.85000781 L6.418125,26.3258594 C2.26521875,28.5509375 0,32.6302344 0,37.0804687 L0,86.403125 C0,90.853125 2.26521875,94.9328125 6.418125,97.1578125 L49.8348437,121.633594 C53.6101562,123.858594 58.5182031,123.858594 62.6710937,121.633594 L92.11875,104.945312 L112.128125,93.4492187 L141.576562,76.7610156 C145.351562,74.5359375 150.259375,74.5359375 154.4125,76.7610156 L177.442187,89.740625 C181.217187,91.965625 183.860156,96.0453125 183.860156,100.495312 L183.860156,126.825 C183.860156,131.275781 181.595313,135.354687 177.442187,137.579687 L154.4125,150.930469 C150.636719,153.155469 145.728906,153.155469 141.576562,150.930469 L118.546875,137.950781 C114.771094,135.725781 112.128125,131.646094 112.128125,127.196094 L112.128125,110.1375 L92.11875,121.633594 L92.11875,138.692187 C92.11875,143.142187 94.384375,147.221875 98.5367187,149.446875 L141.953906,173.922656 C145.728906,176.147656 150.636719,176.147656 154.789844,173.922656 L198.207031,149.446875 C201.982031,147.221875 204.625,143.142187 204.625,138.692187 L204.625,89.3695312 C204.625,84.9195312 202.359375,80.840625 198.207031,78.615625 L154.4125,53.7685156 Z" id="Path" fill="#8247E5"></path>
                </g>
            </g>
        </g>
    </g>
</svg>